<?xml version="1.0" encoding="utf-8"?>
<!-- Generator: Adobe Illustrator 24.1.1, SVG Export Plug-In . SVG Version: 6.00 Build 0)  -->
<svg version="1.1" id="Layer_1" xmlns="http://www.w3.org/2000/svg" xmlns:xlink="http://www.w3.org/1999/xlink" x="0px" y="0px"
	 viewBox="0 0 512 512" style="enable-background:new 0 0 512 512;" xml:space="preserve">
<g>
	<path d="M149.6,217.7h-20.2l-11,56.5h17.9c11.8,0,20.7-2.2,26.5-6.7c5.8-4.4,9.7-11.9,11.7-22.3c2-10,1.1-17.1-2.6-21.3
		C168.2,219.8,160.7,217.8,149.6,217.7L149.6,217.7z M256,121.3C114.6,121.3,0,181.7,0,256s114.6,134.7,256,134.7S512,330.3,512,256
		S397.4,121.3,256,121.3z M186.4,280.3c-5.5,5.3-12.2,9.3-19.5,11.7c-7.2,2.3-16.3,3.5-27.4,3.5h-25.3l-6.9,35.8H77.9l26.3-134.9
		h56.5c17,0,29.4,4.4,37.3,13.3c7.8,8.9,10.2,21.4,7,37.4c-1.2,6.3-3.4,12.4-6.5,18.1C195.3,270.7,191.4,275.8,186.4,280.3
		L186.4,280.3z M272.3,295.6l11.6-59.7c1.3-6.8,0.8-11.4-1.5-13.9c-2.2-2.4-7.2-3.7-14.7-3.7h-23.3l-15,77.3h-29.3l26.2-135h29.2
		l-7,35.9h26c16.4,0,27.7,2.8,33.8,8.5c6.3,5.8,8.1,15,5.7,27.8l-12.3,62.8L272.3,295.6z M434.3,247.3c-1.1,6.3-3.3,12.4-6.5,18.1
		c-3,5.4-7,10.4-11.9,15c-5.6,5.3-12.2,9.3-19.6,11.7c-7.2,2.3-16.3,3.5-27.4,3.5h-25.2l-7,35.8h-29.4l26.3-134.9h56.5
		c17,0,29.4,4.4,37.3,13.4C435.1,218.8,437.5,231.3,434.3,247.3L434.3,247.3z M379,217.7h-20.1l-11,56.5h17.8
		c11.9,0,20.7-2.2,26.5-6.7c5.8-4.4,9.7-11.9,11.8-22.3c2-10,1.1-17.1-2.7-21.3C397.7,219.8,390.2,217.8,379,217.7L379,217.7z"/>
</g>
</svg>